<?xml version="1.0" standalone="no"?>
<!DOCTYPE svg PUBLIC "-//W3C//DTD SVG 20010904//EN"
 "http://www.w3.org/TR/2001/REC-SVG-20010904/DTD/svg10.dtd">
<svg version="1.0" xmlns="http://www.w3.org/2000/svg"
 width="1024.000000pt" height="1024.000000pt" viewBox="0 0 1024.000000 1024.000000"
 preserveAspectRatio="xMidYMid meet">

<g transform="translate(0.000000,1024.000000) scale(0.100000,-0.100000)"
fill="#000000" stroke="none">
<path d="M7516 9317 c-142 -62 -151 -72 -161 -190 -6 -70 -11 -85 -35 -108
-27 -28 -45 -33 -153 -44 -39 -4 -66 -14 -82 -28 -34 -31 -128 -269 -120 -305
3 -15 30 -58 60 -95 75 -93 75 -119 0 -213 -30 -38 -57 -81 -60 -96 -5 -19 6
-58 35 -130 79 -195 76 -192 206 -206 80 -9 91 -13 115 -40 22 -25 28 -43 34
-110 10 -118 19 -127 168 -189 70 -29 140 -53 157 -53 20 0 46 14 82 43 117
95 144 98 231 24 98 -83 105 -83 258 -20 155 63 169 77 180 187 5 47 14 94 21
105 18 29 62 51 105 51 67 1 125 17 148 41 30 31 115 239 115 281 0 35 -13 59
-63 117 -38 44 -56 89 -50 122 2 14 29 56 59 93 66 83 68 107 18 226 -54 131
-72 164 -93 177 -11 7 -59 17 -107 23 -67 7 -93 15 -111 31 -27 26 -43 76 -43
137 0 50 -21 102 -48 119 -39 24 -244 103 -268 103 -32 0 -55 -12 -121 -66
-84 -68 -114 -69 -192 -5 -108 88 -121 89 -285 18z m168 -201 c58 -44 119 -69
183 -74 80 -6 140 11 213 59 l57 39 40 -16 c39 -15 41 -19 48 -68 19 -149 137
-265 285 -283 47 -5 50 -8 65 -47 l16 -42 -35 -53 c-86 -127 -86 -257 0 -381
l36 -52 -17 -44 c-15 -39 -20 -44 -49 -44 -54 0 -128 -28 -181 -68 -60 -46
-110 -135 -120 -215 -7 -53 -9 -55 -48 -71 -40 -16 -43 -15 -67 4 -122 98
-281 106 -404 20 l-55 -39 -40 16 c-40 15 -51 33 -51 83 0 43 -55 143 -102
186 -49 45 -139 84 -193 84 -31 0 -36 5 -53 43 -17 36 -18 45 -6 62 72 103 86
140 86 225 0 75 -23 143 -66 198 l-35 43 19 42 c18 39 22 42 71 50 70 10 128
37 179 83 45 41 100 141 100 184 0 49 12 69 48 84 47 19 40 20 76 -8z"/>
<path d="M7812 8859 c-249 -49 -402 -312 -321 -551 121 -359 618 -393 784 -53
153 312 -122 671 -463 604z m176 -228 c75 -38 116 -108 116 -192 -2 -192 -239
-281 -368 -139 -96 106 -63 266 69 334 42 22 137 21 183 -3z"/>
<path d="M1776 8209 c-22 -5 -54 -18 -72 -30 -36 -22 -74 -90 -74 -134 0 -45
38 -112 77 -136 20 -12 81 -35 136 -50 54 -15 108 -36 118 -45 26 -23 24 -57
-4 -90 -20 -23 -34 -28 -84 -32 -56 -4 -62 -2 -95 27 -20 17 -39 42 -42 56 -6
23 -11 25 -66 25 -66 0 -68 -3 -49 -61 32 -95 116 -149 232 -149 142 0 224 48
245 144 26 124 -38 200 -203 241 -100 25 -145 49 -145 80 0 77 174 82 203 5
11 -29 14 -30 74 -30 53 0 63 3 63 18 -1 31 -37 98 -65 120 -56 45 -161 62
-249 41z"/>
<path d="M2405 8211 c-92 -23 -160 -86 -196 -181 -30 -80 -24 -224 14 -296 47
-93 134 -145 240 -146 74 0 141 23 180 60 35 33 82 121 70 132 -6 6 -99 40
-109 40 -1 0 -7 -15 -13 -33 -7 -19 -25 -47 -42 -63 -26 -24 -38 -29 -83 -29
-101 0 -150 68 -150 210 0 94 25 154 77 185 65 40 166 13 190 -51 13 -32 9
-32 99 -8 36 9 37 10 26 41 -6 18 -30 51 -54 74 -62 62 -158 87 -249 65z"/>
<path d="M2998 8198 c-3 -7 -56 -142 -117 -299 -61 -157 -111 -289 -111 -292
0 -4 28 -7 63 -7 l63 0 23 65 23 66 125 -3 125 -3 25 -62 25 -63 65 0 c57 0
64 2 59 18 -3 9 -57 145 -120 302 l-114 285 -65 3 c-46 2 -66 -1 -69 -10z
m110 -248 l39 -105 -75 -3 c-41 -2 -77 -1 -79 2 -3 3 11 53 32 111 21 58 39
104 41 103 1 -2 20 -50 42 -108z"/>
<path d="M3440 7905 l0 -305 163 0 c155 0 166 1 215 26 95 47 138 149 130 307
-4 70 -10 97 -34 144 -55 107 -122 133 -345 133 l-129 0 0 -305z m318 175 c57
-35 82 -138 62 -250 -20 -111 -46 -130 -175 -130 l-85 0 0 200 0 200 83 0 c65
0 89 -4 115 -20z"/>
<path d="M4230 8191 c-8 -16 -109 -272 -227 -578 -4 -10 12 -13 60 -13 l65 0
24 65 23 66 125 -3 124 -3 25 -62 24 -63 64 0 c34 0 63 3 63 8 0 4 -53 140
-118 302 l-118 295 -61 3 c-54 3 -63 0 -73 -17z m115 -256 l35 -95 -81 0 c-61
0 -80 3 -77 13 3 6 20 56 39 109 22 65 36 92 42 83 4 -8 23 -57 42 -110z"/>
<path d="M7845 7468 c-56 -30 -55 -20 -55 -445 l0 -393 -1251 -2 -1251 -3 -29
-33 c-52 -58 -34 -138 37 -168 52 -22 2602 -21 2644 1 62 32 60 15 60 523 l0
464 -34 34 c-36 36 -81 44 -121 22z"/>
<path d="M1023 7295 c-67 -29 -63 73 -63 -1465 l0 -1390 -105 -420 c-58 -231
-105 -436 -105 -456 0 -26 8 -43 29 -65 l29 -29 2174 0 c1993 0 2175 1 2197
16 13 9 29 32 37 50 13 32 8 57 -96 474 l-110 441 0 1392 c0 1546 6 1423 -66
1453 -50 21 -3873 20 -3921 -1z m3777 -1480 l0 -1275 -1815 0 -1815 0 0 1275
0 1275 1815 0 1815 0 0 -1275z m102 -1810 c42 -170 78 -313 78 -317 0 -5 -898
-8 -1996 -8 -1896 0 -1995 1 -1990 18 3 9 35 136 71 282 36 146 70 282 76 303
l10 37 1836 -2 1837 -3 78 -310z"/>
<path d="M1454 6976 c-69 -30 -64 57 -64 -1158 0 -767 3 -1104 11 -1121 6 -13
23 -31 39 -40 26 -16 148 -17 1545 -17 1681 0 1561 -5 1591 65 12 29 14 203
14 1111 0 1193 4 1126 -65 1158 -30 14 -188 16 -1537 16 -1244 -1 -1508 -3
-1534 -14z m2916 -1166 l0 -960 -1385 0 -1385 0 0 960 0 960 1385 0 1385 0 0
-960z"/>
<path d="M1864 6541 c-17 -11 -36 -34 -43 -52 -8 -22 -11 -223 -11 -676 0
-692 0 -691 51 -727 30 -21 88 -21 118 0 51 36 51 35 51 729 0 708 1 699 -59
729 -40 21 -69 20 -107 -3z"/>
<path d="M2734 6336 c-67 -29 -64 0 -64 -634 l0 -574 29 -29 c48 -47 130 -37
164 21 15 25 17 83 17 585 0 617 1 603 -65 631 -41 17 -42 17 -81 0z"/>
<path d="M2294 6119 c-11 -6 -28 -23 -37 -39 -15 -25 -17 -76 -17 -480 0 -404
2 -455 17 -480 34 -58 116 -68 164 -21 l29 29 0 472 0 472 -29 29 c-31 31 -84
38 -127 18z"/>
<path d="M6577 5770 l-1299 -5 -24 -28 c-35 -41 -33 -97 5 -139 l29 -33 1251
-3 1251 -2 0 -393 c0 -356 2 -394 18 -413 44 -55 109 -59 158 -10 l34 34 0
464 c0 412 -2 466 -16 487 -17 24 -74 53 -96 49 -7 -2 -597 -5 -1311 -8z"/>
<path d="M6353 4574 c-62 -31 -63 -35 -63 -518 0 -480 1 -491 59 -520 27 -14
189 -16 1546 -16 1397 0 1519 1 1545 17 16 9 33 27 39 40 7 16 11 174 11 481
0 407 -2 460 -16 481 -38 53 34 51 -1586 51 -1344 0 -1506 -2 -1535 -16z
m2927 -524 l0 -320 -1385 0 -1385 0 0 320 0 320 1385 0 1385 0 0 -320z"/>
<path d="M6353 3294 c-62 -31 -63 -35 -63 -518 0 -480 1 -491 59 -520 27 -14
189 -16 1546 -16 1397 0 1519 1 1545 17 16 9 33 27 39 40 7 16 11 174 11 481
0 407 -2 460 -16 481 -38 53 34 51 -1586 51 -1344 0 -1506 -2 -1535 -16z
m2927 -524 l0 -320 -1385 0 -1385 0 0 320 0 320 1385 0 1385 0 0 -320z"/>
<path d="M3781 3234 c-50 -35 -51 -50 -51 -538 l0 -455 -394 -3 -394 -3 -26
-24 c-51 -48 -40 -142 20 -170 16 -7 175 -11 486 -11 l462 -1 30 31 31 30 3
523 c2 352 0 534 -8 559 -20 69 -102 101 -159 62z"/>
<path d="M1540 3076 c-295 -82 -516 -385 -569 -779 -36 -264 22 -563 150 -770
16 -27 39 -72 50 -101 29 -73 122 -257 164 -322 30 -47 46 -60 106 -89 158
-76 341 -70 507 14 28 14 54 39 73 69 40 63 132 245 159 312 12 30 41 89 65
130 24 41 56 105 70 143 l27 67 52 0 c76 0 124 17 170 60 41 38 41 39 41 112
-1 93 -16 131 -150 373 -58 105 -112 213 -121 240 -28 87 -111 238 -169 308
-98 119 -239 210 -363 236 -69 14 -205 13 -262 -3z m295 -235 c128 -63 229
-192 298 -378 19 -51 71 -156 115 -235 91 -164 132 -243 132 -258 0 -5 -14
-10 -31 -10 -108 0 -183 -55 -218 -161 -12 -36 -44 -104 -71 -151 -27 -47 -65
-126 -85 -174 -56 -134 -125 -254 -158 -270 -71 -37 -199 -38 -275 -2 -32 16
-93 121 -158 272 -26 61 -55 122 -64 136 -27 39 -71 129 -92 190 -128 370 -19
830 240 1007 83 57 139 74 229 69 57 -2 86 -10 138 -35z"/>
<path d="M1857 2430 c-38 -30 -52 -80 -33 -123 15 -37 59 -67 96 -67 37 0 81
30 96 67 29 68 -21 143 -96 143 -22 0 -48 -8 -63 -20z"/>
<path d="M6353 2014 c-62 -31 -63 -35 -63 -518 0 -480 1 -491 59 -520 27 -14
189 -16 1546 -16 1397 0 1519 1 1545 17 16 9 33 27 39 40 7 16 11 174 11 481
0 407 -2 460 -16 481 -38 53 34 51 -1586 51 -1344 0 -1506 -2 -1535 -16z
m2927 -524 l0 -320 -1385 0 -1385 0 0 320 0 320 1385 0 1385 0 0 -320z"/>
</g>
</svg>
